<svg version="1.1" viewBox="0.0 0.0 252.12073490813648 402.12335958005247" fill="none" stroke="none" stroke-linecap="square" stroke-miterlimit="10" xmlns:xlink="http://www.w3.org/1999/xlink" xmlns="http://www.w3.org/2000/svg"><clipPath id="p.0">
  <path d="m0 0l252.12073 0l0 402.12335l-252.12073 0l0 -402.12335z" clip-rule="nonzero"/></clipPath><g clip-path="url(#p.0)">
  <path stroke="#898081" stroke-width="8.0" stroke-linejoin="round" stroke-linecap="butt" d="m123.20477 385.2087l-65.25984 -22.837036l0 -89.98187l65.25984 22.837036z" fill-rule="evenodd"/>
<path fill="#898081" fill-opacity="0.0" d="m188.46461 272.3898l-65.25984 22.837036l0 89.98187l65.25984 -22.837036z" fill-rule="evenodd"/>
<path stroke="#898081" stroke-width="8.0" stroke-linejoin="round" stroke-linecap="butt" d="m188.46461 272.3898l-65.25984 22.837036l0 89.98187l65.25984 -22.837036z" fill-rule="evenodd"/>
<path fill="#898081" fill-opacity="0.0" d="m57.94488 270.41602l64.91339 -23.370087l64.91338 23.370087l-64.91338 23.370087z" fill-rule="evenodd"/>
<path stroke="#898081" stroke-width="8.0" stroke-linejoin="round" stroke-linecap="butt" d="m57.94488 270.41602l64.91339 -23.370087l64.91338 23.370087l-64.91338 23.370087z" fill-rule="evenodd"/>
<path fill="#898081" fill-opacity="0.0" d="m122.858315 272.0302l-65.25984 -22.83702l0 -89.98187l65.25984 22.837036z" fill-rule="evenodd"/>
<path stroke="#898081" stroke-width="8.0" stroke-linejoin="round" stroke-linecap="butt" d="m122.858315 272.0302l-65.25984 -22.83702l0 -89.98187l65.25984 22.837036z" fill-rule="evenodd"/>
<path fill="#898081" fill-opacity="0.0" d="m188.11816 159.21132l-65.25985 22.837036l0 89.98186l65.25985 -22.83702z" fill-rule="evenodd"/>
<path stroke="#898081" stroke-width="8.0" stroke-linejoin="round" stroke-linecap="butt" d="m188.11816 159.21132l-65.25985 22.837036l0 89.98186l65.25985 -22.83702z" fill-rule="evenodd"/>
<path fill="#898081" fill-opacity="0.0" d="m57.598427 157.23753l64.91338 -23.370087l64.91339 23.370087l-64.91339 23.370071z" fill-rule="evenodd"/>
<path stroke="#898081" stroke-width="8.0" stroke-linejoin="round" stroke-linecap="butt" d="m57.598427 157.23753l64.91338 -23.370087l64.91339 23.370087l-64.91339 23.370071z" fill-rule="evenodd"/>
<path fill="#898081" fill-opacity="0.0" d="m122.51186 155.11684l-65.25984 -22.837036l0 -89.981865l65.25984 22.837029z" fill-rule="evenodd"/>
<path stroke="#898081" stroke-width="8.0" stroke-linejoin="round" stroke-linecap="butt" d="m122.51186 155.11684l-65.25984 -22.837036l0 -89.981865l65.25984 22.837029z" fill-rule="evenodd"/>
<path fill="#898081" fill-opacity="0.0" d="m187.7717 42.297935l-65.259834 22.837029l0 89.98187l65.259834 -22.837036z" fill-rule="evenodd"/>
<path stroke="#898081" stroke-width="8.0" stroke-linejoin="round" stroke-linecap="butt" d="m187.7717 42.297935l-65.259834 22.837029l0 89.98187l65.259834 -22.837036z" fill-rule="evenodd"/>
<path fill="#898081" fill-opacity="0.0" d="m57.25197 40.324146l64.91338 -23.370077l64.91338 23.370077l-64.91338 23.370079z" fill-rule="evenodd"/>
<path fill="#898081" stroke="#898081" stroke-width="8.0" stroke-linejoin="round" stroke-linecap="butt" d="m57.25197 40.324146l64.91338 -23.370077l64.91338 23.370077l-64.91338 23.370079z" fill-rule="evenodd"/>
<path fill="#898081" fill-opacity="0.0" d="m0 23.044619l31.622047 0l0 165.41733l-31.622047 0z" fill-rule="evenodd"/>
<path fill="#898081" d="m20.328125 42.19462l6.296875 18.796875l-0.078125 0l6.34375 -18.796875l9.328125 0l0 4.8125l-2.078125 0.203125q-0.421875 0.03125 -0.40625 0.53125l0.953125 17.5625l2.53125 0.109375l0 5.03125l-11.296875 0l0 -4.828125l2.203125 -0.1875q0.28125 -0.015625 0.28125 -0.1875l-0.015625 -14.0625l0.078125 0.03125l-5.671875 16.671875l-4.9375 0l-5.59375 -16.515625l0.078125 -0.03125l0 13.96875l2.546875 0.109375l0 5.03125l-11.09375 0l0 -4.828125l2.1875 -0.1875q0.234375 -0.015625 0.25 -0.3125l1.03125 -17.765625l-2.390625 -0.15625l0 -5.0l9.453125 0z" fill-rule="nonzero"/>
<path fill="#898081" d="m23.671875 89.710236q5.078125 0 8.5 3.609375q3.4375 3.609375 3.4375 10.828125q0 7.21875 -3.40625 11.015625q-3.40625 3.796875 -9.203125 3.796875q-5.78125 0 -9.09375 -3.765625q-3.3125 -3.78125 -3.3125 -10.8125q0 -3.84375 1.140625 -6.78125q1.15625 -2.953125 3.0625 -4.609375q3.796875 -3.28125 8.875 -3.28125zm-6.421875 14.46875q0 9.09375 6.0625 9.09375q3.15625 0 4.421875 -2.59375q1.265625 -2.5 1.265625 -6.1875q0 -3.3125 -1.140625 -6.078125q-0.578125 -1.375 -1.75 -2.140625q-1.171875 -0.78125 -3.09375 -0.78125q-1.90625 0 -3.28125 1.25q-1.375 1.25 -1.9375 3.125q-0.546875 1.875 -0.546875 4.3125z" fill-rule="nonzero"/>
<path fill="#898081" stroke="#898081" d="m10.359375 166.44461l0 -4.8125l2.078125 -0.203125q0.40625 -0.046875 0.40625 -0.296875l0 -17.8125l-2.28125 -0.125l0 -5.0l11.78125 0q6.21875 0 9.765625 3.359375q3.546875 3.34375 3.546875 9.828125q0 3.9375 -1.0625 6.921875q-1.046875 2.984375 -2.921875 4.71875q-3.671875 3.421875 -9.125 3.421875l-12.1875 0zm9.015625 -22.71875l0 17.21875l3.25 0q3.03125 0 4.734375 -2.203125q1.71875 -2.203125 1.71875 -6.640625q0 -8.375 -6.96875 -8.375l-2.734375 0z" fill-rule="nonzero"/>
<path fill="#898081" d="m18.703125 191.69461l0 13.28125q0 2.421875 1.078125 3.34375q1.078125 0.90625 3.265625 0.90625q2.1875 0 3.3125 -1.015625q1.125 -1.015625 1.125 -3.03125l0 -13.859375l-2.328125 -0.125l0 -5.0l11.140625 0l0 4.8125l-2.078125 0.203125q-0.40625 0.03125 -0.40625 0.359375l0 14.28125q0 4.28125 -2.984375 6.703125q-2.984375 2.40625 -8.09375 2.40625q-5.09375 0 -7.8125 -2.359375q-2.71875 -2.375 -2.71875 -7.390625l0 -13.890625l-2.328125 -0.125l0 -5.0l11.34375 0l0 4.8125l-2.0625 0.203125q-0.359375 0.046875 -0.40625 0.09375q-0.046875 0.03125 -0.046875 0.390625z" fill-rule="nonzero"/>
<path fill="#898081" d="m30.9375 262.4446l-20.65625 0l0 -4.8125l2.0625 -0.203125q0.421875 -0.046875 0.421875 -0.296875l0 -17.8125l-2.28125 -0.125l0 -5.0l11.296875 0l0 4.8125l-2.078125 0.203125q-0.40625 0.03125 -0.40625 0.453125l0 17.0l5.8125 0q0.09375 0 0.09375 0q0 0 0 -0.453125l0 -3.6875l5.734375 0.40625l0 9.515625z" fill-rule="nonzero"/>
<path fill="#898081" d="m11.765625 304.8665l6.09375 -17.640625l-2.21875 -0.21875l0 -4.8125l10.5625 0l7.625 23.84375l0.015625 -0.765625l3.09375 0.140625l0 5.03125l-11.984375 0l0 -4.828125l2.28125 -0.1875q0.375 -0.046875 0.328125 0q-0.03125 0.03125 -0.078125 -0.109375l-0.65625 -1.921875l-8.171875 0l-0.640625 1.921875l2.078125 0.09375l0 5.03125l-10.890625 0l0 -4.8125l2.0625 -0.203125q0.3125 -0.03125 0.5 -0.5625zm11.109375 -17.203125l-2.703125 10.40625l5.171875 0l-2.59375 -10.40625l0.125 0z" fill-rule="nonzero"/>
<path fill="#898081" d="m10.28125 358.4446l0 -4.8125l2.0625 -0.203125q0.421875 -0.046875 0.421875 -0.296875l0 -17.8125l-2.28125 -0.125l0 -5.0l11.75 0q4.90625 0 7.65625 1.921875q2.765625 1.90625 2.765625 6.265625q0 3.015625 -1.578125 4.96875q-1.578125 1.953125 -2.40625 2.03125q0.40625 -0.109375 1.390625 2.125l2.671875 5.8125l2.5625 0.09375l0 5.03125l-11.53125 0l0 -4.8125l1.890625 -0.203125q0.34375 0.109375 0.1875 0.109375q0 -0.046875 -0.078125 -0.203125l-1.890625 -4.015625q-0.359375 -0.828125 -0.703125 -1.09375q-0.34375 -0.265625 -1.0625 -0.265625l-2.8125 0l0 5.34375l2.59375 0.109375l0 5.03125l-11.609375 0zm9.015625 -15.9375l2.65625 0q4.09375 0 4.09375 -3.578125q0 -2.03125 -1.0 -2.609375q-1.0 -0.59375 -3.65625 -0.59375l-2.09375 0l0 6.78125z" fill-rule="nonzero"/>
<path fill="#898081" fill-opacity="0.0" d="m197.99213 0l31.62204 0l0 165.41733l-31.62204 0z" fill-rule="evenodd"/>
<path fill="#898081" d="m218.32025 19.149998l6.296875 18.796875l-0.078125 0l6.34375 -18.796875l9.328125 0l0 4.8125l-2.078125 0.203125q-0.421875 0.03125 -0.40625 0.53125l0.953125 17.5625l2.53125 0.109375l0 5.03125l-11.296875 0l0 -4.828125l2.203125 -0.1875q0.28125 -0.015625 0.28125 -0.1875l-0.015625 -14.0625l0.078125 0.03125l-5.671875 16.671875l-4.9375 0l-5.59375 -16.515625l0.078125 -0.03125l0 13.96875l2.546875 0.109375l0 5.03125l-11.09375 0l0 -4.828125l2.1875 -0.1875q0.234375 -0.015625 0.25 -0.3125l1.03125 -17.765625l-2.390625 -0.15625l0 -5.0l9.453125 0z" fill-rule="nonzero"/>
<path fill="#898081" d="m221.664 66.66562q5.078125 0 8.5 3.609375q3.4375 3.609375 3.4375 10.828125q0 7.21875 -3.40625 11.015625q-3.40625 3.796875 -9.203125 3.796875q-5.78125 0 -9.09375 -3.765625q-3.3125 -3.78125 -3.3125 -10.8125q0 -3.84375 1.140625 -6.78125q1.15625 -2.953125 3.0625 -4.609375q3.796875 -3.28125 8.875 -3.28125zm-6.421875 14.46875q0 9.09375 6.0625 9.09375q3.15625 0 4.421875 -2.59375q1.265625 -2.5 1.265625 -6.1875q0 -3.3125 -1.140625 -6.078125q-0.578125 -1.375 -1.75 -2.140625q-1.171875 -0.78125 -3.09375 -0.78125q-1.90625 0 -3.28125 1.25q-1.375 1.25 -1.9375 3.125q-0.546875 1.875 -0.546875 4.3125z" fill-rule="nonzero"/>
<path fill="#898081" d="m208.27338 143.4l0 -4.828125l2.203125 -0.1875q0.28125 -0.015625 0.28125 -0.296875l0 -17.8125l-2.28125 -0.125l0 -5.0l8.5 0l10.921875 19.046875l-0.078125 0.0625l-0.75 -13.96875l-2.640625 -0.125l0 -5.015625l11.421875 0l0 4.828125l-2.203125 0.1875q-0.203125 0.015625 -0.203125 0.40625l0 22.828125l-5.953125 0l-11.1875 -19.328125l0.078125 -0.0625l0.75 14.25l2.59375 0.109375l0 5.03125l-11.453125 0z" fill-rule="nonzero"/>
<path fill="#898081" d="m221.664 162.66562q5.078125 0 8.5 3.609375q3.4375 3.609375 3.4375 10.828125q0 7.21875 -3.40625 11.015625q-3.40625 3.796875 -9.203125 3.796875q-5.78125 0 -9.09375 -3.765625q-3.3125 -3.78125 -3.3125 -10.8125q0 -3.84375 1.140625 -6.78125q1.15625 -2.953125 3.0625 -4.609375q3.796875 -3.28125 8.875 -3.28125zm-6.421875 14.46875q0 9.09375 6.0625 9.09375q3.15625 0 4.421875 -2.59375q1.265625 -2.5 1.265625 -6.1875q0 -3.3125 -1.140625 -6.078125q-0.578125 -1.375 -1.75 -2.140625q-1.171875 -0.78125 -3.09375 -0.78125q-1.90625 0 -3.28125 1.25q-1.375 1.25 -1.9375 3.125q-0.546875 1.875 -0.546875 4.3125z" fill-rule="nonzero"/>
<path fill="#898081" d="m228.92963 239.4l-20.65625 0l0 -4.8125l2.0625 -0.203125q0.421875 -0.046875 0.421875 -0.296875l0 -17.8125l-2.28125 -0.125l0 -5.0l11.296875 0l0 4.8125l-2.078125 0.203125q-0.40625 0.03125 -0.40625 0.453125l0 17.0l5.8125 0q0.09375 0 0.09375 0q0 0 0 -0.453125l0 -3.6875l5.734375 0.40625l0 9.515625z" fill-rule="nonzero"/>
<path fill="#898081" d="m210.75775 281.88437l0 -17.609375l-2.28125 -0.125l0 -5.0l11.328125 0l0 4.8125l-2.0625 0.203125q-0.40625 0.03125 -0.40625 0.453125l0 17.640625l2.265625 0.109375l0 5.03125l-11.328125 0l0 -4.8125l2.046875 -0.203125q0.34375 -0.03125 0.390625 -0.078125q0.046875 -0.046875 0.046875 -0.421875z" fill-rule="nonzero"/>
<path fill="#898081" d="m215.71088 330.0875l0 -17.328125l-2.296875 0q-0.078125 0 -0.078125 0.40625l0 2.78125l-5.75 -0.40625l0 -8.390625l22.578125 0l0 8.390625l-5.734375 0.40625l0 -2.78125q0 -0.40625 0 -0.40625q0 0 -0.328125 0l-1.890625 0l0 17.5l3.15625 0.109375l0 5.03125l-12.9375 0l0 -4.84375l2.890625 -0.171875q0.390625 -0.046875 0.390625 -0.296875z" fill-rule="nonzero"/>
<path fill="#898081" d="m226.94525 377.88437l0 -6.078125l-9.65625 0l0 6.453125l2.3125 0.109375l0 5.03125l-11.328125 0l0 -4.8125l2.0625 -0.203125q0.421875 -0.046875 0.421875 -0.296875l0 -17.8125l-2.28125 -0.125l0 -5.0l11.328125 0l0 4.8125l-2.046875 0.203125q-0.375 0.046875 -0.421875 0.09375q-0.046875 0.03125 -0.046875 0.390625l0 5.375l9.65625 0l0 -5.75l-2.265625 -0.125l0 -5.0l11.328125 0l0 4.8125l-2.0625 0.203125q-0.421875 0.03125 -0.421875 0.453125l0 17.640625l2.28125 0.109375l0 5.03125l-11.328125 0l0 -4.8125l2.046875 -0.203125q0.328125 -0.03125 0.375 -0.078125q0.046875 -0.046875 0.046875 -0.421875z" fill-rule="nonzero"/>
</g></svg>
